<svg xmlns="http://www.w3.org/2000/svg" version="1.1" xmlns:xlink="http://www.w3.org/1999/xlink" xmlns:svgjs="http://svgjs.dev/svgjs" width="2000" height="424" viewBox="0 0 2000 424"><g transform="matrix(1,0,0,1,-1.2121212121213603,1.2466110822993528)"><svg viewBox="0 0 396 84" data-background-color="#ffffff" preserveAspectRatio="xMidYMid meet" height="424" width="2000" xmlns="http://www.w3.org/2000/svg" xmlns:xlink="http://www.w3.org/1999/xlink"><g id="tight-bounds" transform="matrix(1,0,0,1,0.24000000000003752,-0.2469701200781742)"><svg viewBox="0 0 395.5199999999999 84.49394024015638" height="84.49394024015638" width="395.5199999999999"><g><svg viewBox="0 0 395.52000000000004 84.49394024015639" height="84.49394024015638" width="395.5199999999999"><g><svg viewBox="0 0 395.52000000000004 84.49394024015639" height="84.49394024015639" width="395.52000000000004"><g id="textblocktransform"><svg viewBox="0 0 395.52000000000004 84.49394024015639" height="84.49394024015639" width="395.52000000000004" id="textblock"><g><svg viewBox="0 0 395.52000000000004 84.49394024015639" height="84.49394024015639" width="395.52000000000004"><g transform="matrix(1,0,0,1,0,0)"><svg width="395.52000000000004" viewBox="-0.25 -37.55 179.04 38.25" height="84.49394024015639" data-palette-color="#010c80"><path d="M11.75-37.15Q13.2-37.15 15.5-37.35L15.5-37.35Q18.2-37.55 20.6-37.55L20.6-37.55Q27.8-37.55 30.73-35.23 33.65-32.9 33.65-28.25L33.65-28.25Q33.65-24.3 31.45-21.4 29.25-18.5 25.35-17.15L25.35-17.15Q26.2-16.2 27.05-14.18 27.9-12.15 29.1-9L29.1-9 29.6-7.9Q30.65-5.65 31.23-4.67 31.8-3.7 32.63-3.15 33.45-2.6 34.8-2.6L34.8-2.6 34.55 0 24.6 0Q24.15 0 23.7-1.07 23.25-2.15 22.35-4.65L22.35-4.65 21.5-7Q18.65-15.1 17.85-16.15L17.85-16.15 13.35-16.15 11.75-3.25 16.25-2.55 16.1 0-0.25 0-0.05-2.55 3.4-3.25 7.4-33.9 3.9-34.45 4.2-37.15 11.75-37.15ZM13.8-19.5Q14.65-19.45 15.7-19.43 16.75-19.4 17.5-19.45L17.5-19.45Q21.05-19.45 23.03-21.85 25-24.25 24.8-28.75L24.8-28.75Q24.7-31.6 23.1-33.02 21.5-34.45 18.65-34.45L18.65-34.45Q17-34.45 15.8-34.25L15.8-34.25 13.8-19.5ZM39.45-37.15L66.55-37.15 65.7-28.2 60.7-28.2 59.7-33.65 51.15-34.25 49.45-21.45 60.65-22.55 59.75-16.95 48.95-17.7 47.25-3.65 58.65-4.5 61.3-11.35 66.4-11 64.65 0 34.45 0 34.8-2.55 38.7-3.25 42.7-33.9 39.15-34.45 39.45-37.15ZM86.2-22.5Q85.45-23.4 84.17-24.18 82.9-24.95 81.2-24.95L81.2-24.95Q79.55-24.95 78.42-24.18 77.3-23.4 77.25-22L77.25-22Q77.25-20.6 78.22-19.48 79.2-18.35 81.6-16.55L81.6-16.55Q84.1-14.75 85.35-13 86.6-11.25 86.6-8.45L86.6-8.45Q86.6-5.55 85.02-3.53 83.45-1.5 80.8-0.5 78.15 0.5 74.95 0.5L74.95 0.5Q72.7 0.5 70.3-0.05 67.9-0.6 67.15-1.2L67.15-1.2 68.3-6.05Q69.4-5 71.15-4.1 72.9-3.2 74.8-3.2L74.8-3.2Q76.35-3.2 77.55-4 78.75-4.8 78.75-6.4L78.75-6.4Q78.75-7.8 77.65-9 76.55-10.2 74.25-11.8L74.25-11.8Q72.15-13.25 70.82-15.2 69.5-17.15 69.5-20L69.5-20Q69.5-22.45 70.92-24.35 72.35-26.25 74.92-27.33 77.5-28.4 80.9-28.4L80.9-28.4Q82.75-28.4 84.65-28.1 86.55-27.8 87.25-27.5L87.25-27.5 86.2-22.5ZM99.39-9.45Q99.34-8.95 99.29-8.6 99.24-8.25 99.19-8L99.19-8Q98.99-6.4 98.99-6.1L98.99-6.1Q98.99-4.1 100.84-4.1L100.84-4.1Q101.89-4.1 103.02-4.42 104.14-4.75 104.99-5.5L104.99-5.5 105.59-3.6Q104.14-2 101.67-0.75 99.19 0.5 95.74 0.5L95.74 0.5Q93.69 0.5 92.37-0.53 91.04-1.55 91.04-3.9L91.04-3.9Q91.04-4.85 91.69-9.6L91.69-9.6 93.64-23.85 90.69-23.85 91.29-26.5 94.29-27.65Q95.89-29 98.19-34.55L98.19-34.55 102.74-34.55 101.89-27.75 107.49-27.75 106.94-23.85 101.34-23.85 99.39-9.45ZM130.74-5.5Q130.69-5.25 130.69-4.85L130.69-4.85Q130.69-3.65 131.69-3.65L131.69-3.65Q132.54-3.65 133.89-4.75L133.89-4.75 134.59-3.05Q133.89-1.95 132.09-0.73 130.29 0.5 127.84 0.5L127.84 0.5Q126.04 0.5 124.94-0.25 123.84-1 123.74-2.4L123.74-2.4 123.74-2.7Q120.64 0.5 116.29 0.5L116.29 0.5Q111.94 0.5 109.79-2.4 107.64-5.3 107.64-9.8L107.64-9.8Q107.64-14.65 109.57-18.93 111.49-23.2 115.29-25.8 119.09-28.4 124.39-28.4L124.39-28.4Q125.69-28.4 127.32-28.08 128.94-27.75 130.14-27.35L130.14-27.35 133.89-28.4 130.74-5.5ZM125.54-24.85Q124.44-25.05 123.84-25.05L123.84-25.05Q121.04-25.05 119.27-22.8 117.49-20.55 116.74-17.15 115.99-13.75 115.99-10.1L115.99-10.1Q115.99-7.1 116.97-5.4 117.94-3.7 119.64-3.7L119.64-3.7Q121.24-3.7 122.84-5.2L122.84-5.2 125.54-24.85ZM146.69-9.45Q146.64-8.95 146.59-8.6 146.54-8.25 146.49-8L146.49-8Q146.29-6.4 146.29-6.1L146.29-6.1Q146.29-4.1 148.14-4.1L148.14-4.1Q149.19-4.1 150.31-4.42 151.44-4.75 152.29-5.5L152.29-5.5 152.89-3.6Q151.44-2 148.96-0.75 146.49 0.5 143.04 0.5L143.04 0.5Q140.99 0.5 139.66-0.53 138.34-1.55 138.34-3.9L138.34-3.9Q138.34-4.85 138.99-9.6L138.99-9.6 140.94-23.85 137.99-23.85 138.59-26.5 141.59-27.65Q143.19-29 145.49-34.55L145.49-34.55 150.04-34.55 149.19-27.75 154.79-27.75 154.24-23.85 148.64-23.85 146.69-9.45ZM177.09-5.2Q175.74-3.05 172.79-1.18 169.84 0.7 165.69 0.7L165.69 0.7Q161.99 0.7 159.59-0.88 157.19-2.45 156.09-5 154.99-7.55 154.99-10.5L154.99-10.5Q154.99-15.6 157.06-19.7 159.14-23.8 162.76-26.13 166.39-28.45 170.79-28.45L170.79-28.45Q174.89-28.45 176.84-26.65 178.79-24.85 178.79-22L178.79-22Q178.79-18.35 176.39-15.93 173.99-13.5 170.51-12.35 167.04-11.2 163.64-11.1L163.64-11.1Q163.59-7.4 164.81-5.5 166.04-3.6 168.24-3.6L168.24-3.6Q170.79-3.6 172.51-4.75 174.24-5.9 175.54-7.65L175.54-7.65 177.09-5.2ZM169.04-25.05Q166.44-25.05 165.16-21.7 163.89-18.35 163.64-14.05L163.64-14.05Q165.19-14.15 166.94-15.03 168.69-15.9 169.89-17.55 171.09-19.2 171.09-21.4L171.09-21.4Q171.09-25.05 169.04-25.05L169.04-25.05Z" opacity="1" transform="matrix(1,0,0,1,0,0)" fill="#010C80" class="wordmark-text-0" data-fill-palette-color="primary" id="text-0"></path></svg></g></svg></g></svg></g></svg></g><g></g></svg></g><defs></defs></svg><rect width="395.5199999999999" height="84.49394024015638" fill="none" stroke="none" visibility="hidden"></rect></g></svg></g></svg>